<svg width="113" height="18" viewBox="0 0 113 18" fill="none" xmlns="http://www.w3.org/2000/svg">
<path d="M0 16.7593L6.264 8.21529L1.128 0.751291H6.264L8.64 4.90329L11.112 0.751291H16.224L11.016 8.21529L17.064 16.7593H12.024L8.616 11.5513L5.016 16.7593H0ZM23.8641 11.9113V8.71929H29.9361V11.9113H23.8641Z" fill="#FDB123"/>
<path d="M37.6866 15.3193L39.4626 11.9593C40.6146 13.0473 41.8386 13.5913 43.1346 13.5913C43.8706 13.5913 44.4066 13.4073 44.7426 13.0393C45.0146 12.7673 45.1506 12.4313 45.1506 12.0313C45.1506 11.6473 44.9986 11.3273 44.6946 11.0713C44.4386 10.8473 43.7506 10.5673 42.6306 10.2313L41.5506 9.89529C40.4786 9.55929 39.7106 9.12729 39.2466 8.59929C38.6386 7.94329 38.3346 6.99929 38.3346 5.76729C38.3346 4.16729 38.8226 2.87929 39.7986 1.90329C40.8066 0.895292 42.1746 0.391292 43.9026 0.391292C45.5506 0.391292 47.1986 0.823292 48.8466 1.68729L47.1906 4.92729C46.2786 4.20729 45.3666 3.84729 44.4546 3.84729C43.8786 3.84729 43.4226 4.00729 43.0866 4.32729C42.8146 4.59929 42.6786 4.88729 42.6786 5.19129C42.6786 5.47929 42.7506 5.71929 42.8946 5.91129C43.1186 6.18329 43.5826 6.42329 44.2866 6.63129L45.5586 7.01529C46.9026 7.43129 47.8706 7.95929 48.4626 8.59929C49.1506 9.33529 49.4946 10.2873 49.4946 11.4553C49.4946 13.1353 48.9906 14.4793 47.9826 15.4873C46.8946 16.5753 45.3186 17.1193 43.2546 17.1193C42.1186 17.1193 41.0706 16.9433 40.1106 16.5913C39.2946 16.3033 38.4866 15.8793 37.6866 15.3193ZM56.2695 0.751291V6.72729H62.2695V0.751291H66.4455V16.7593H62.2695V10.2793H56.2695V16.7593H52.1175V0.751291H56.2695ZM86.7568 8.76729C86.7568 11.1353 85.9168 13.1273 84.2368 14.7433C82.5728 16.3273 80.4688 17.1193 77.9248 17.1193C75.3808 17.1193 73.2768 16.3273 71.6128 14.7433C69.9328 13.1273 69.0928 11.1353 69.0928 8.76729C69.0928 7.66329 69.3008 6.58329 69.7168 5.52729C70.1488 4.47129 70.7808 3.55129 71.6128 2.76729C73.2768 1.18329 75.3808 0.391292 77.9248 0.391292C80.4688 0.391292 82.5728 1.18329 84.2368 2.76729C85.0688 3.55129 85.6928 4.47129 86.1088 5.52729C86.5408 6.58329 86.7568 7.66329 86.7568 8.76729ZM77.9248 4.42329C76.6128 4.42329 75.5328 4.84729 74.6848 5.69529C73.8368 6.52729 73.4128 7.57529 73.4128 8.83929C73.4128 10.0073 73.8368 10.9993 74.6848 11.8153C75.5648 12.6633 76.6448 13.0873 77.9248 13.0873C79.2368 13.0873 80.3088 12.6713 81.1408 11.8393C82.0048 10.9753 82.4368 9.95129 82.4368 8.76729C82.4368 7.55129 82.0048 6.52729 81.1408 5.69529C80.2448 4.84729 79.1728 4.42329 77.9248 4.42329ZM98.5026 0.751291V4.27929H93.5586V6.94329H98.2386V10.4713H93.5586V13.2313H98.5026V16.7593H89.4066V0.751291H98.5026ZM100.429 15.3193L102.205 11.9593C103.357 13.0473 104.581 13.5913 105.877 13.5913C106.613 13.5913 107.149 13.4073 107.485 13.0393C107.757 12.7673 107.893 12.4313 107.893 12.0313C107.893 11.6473 107.741 11.3273 107.437 11.0713C107.181 10.8473 106.493 10.5673 105.373 10.2313L104.293 9.89529C103.221 9.55929 102.453 9.12729 101.989 8.59929C101.381 7.94329 101.077 6.99929 101.077 5.76729C101.077 4.16729 101.565 2.87929 102.541 1.90329C103.549 0.895292 104.917 0.391292 106.645 0.391292C108.293 0.391292 109.941 0.823292 111.589 1.68729L109.933 4.92729C109.021 4.20729 108.109 3.84729 107.197 3.84729C106.621 3.84729 106.165 4.00729 105.829 4.32729C105.557 4.59929 105.421 4.88729 105.421 5.19129C105.421 5.47929 105.493 5.71929 105.637 5.91129C105.861 6.18329 106.325 6.42329 107.029 6.63129L108.301 7.01529C109.645 7.43129 110.613 7.95929 111.205 8.59929C111.893 9.33529 112.237 10.2873 112.237 11.4553C112.237 13.1353 111.733 14.4793 110.725 15.4873C109.637 16.5753 108.061 17.1193 105.997 17.1193C104.861 17.1193 103.813 16.9433 102.853 16.5913C102.037 16.3033 101.229 15.8793 100.429 15.3193Z" fill="white"/>
</svg>
