<svg width="13" height="17" viewBox="0 0 13 17" fill="none" xmlns="http://www.w3.org/2000/svg">
<path d="M6.77344 0.357422C3.35352 0.357422 0 2.61523 0 6.30078C0 8.625 1.29492 9.95312 2.0918 9.95312C2.42383 9.95312 2.62305 9.05664 2.62305 8.79102C2.62305 8.49219 1.82617 7.82812 1.82617 6.5332C1.82617 3.87695 3.85156 1.98438 6.47461 1.98438C8.76562 1.98438 10.4258 3.2793 10.4258 5.63672C10.4258 7.39648 9.72852 10.6836 7.4375 10.6836C6.60742 10.6836 5.87695 10.0859 5.87695 9.25586C5.87695 7.99414 6.77344 6.76562 6.77344 5.4707C6.77344 3.2793 3.65234 3.67773 3.65234 6.33398C3.65234 6.89844 3.71875 7.49609 3.98438 8.02734C3.51953 9.98633 2.58984 12.9414 2.58984 14.9668C2.58984 15.5977 2.65625 16.1953 2.72266 16.8262C2.82227 16.959 2.78906 16.959 2.95508 16.8926C4.61523 14.6016 4.58203 14.1367 5.3125 11.1484C5.74414 11.9121 6.77344 12.3438 7.63672 12.3438C11.1562 12.3438 12.75 8.89062 12.75 5.80273C12.75 2.51562 9.89453 0.357422 6.77344 0.357422Z" fill="white"/>
</svg>
