<svg width="20" height="20" viewBox="0 0 20 20" fill="none" xmlns="http://www.w3.org/2000/svg">
<path d="M16.4796 6.2989C16.4395 5.81745 16.2389 5.37613 15.9179 5.05517C15.5969 4.7342 15.1757 4.5336 14.6742 4.5336H13.611V3.61083C13.611 2.60782 13.2098 1.70512 12.5478 1.06319C11.8858 0.401204 10.9831 0 10.0001 0C8.99714 0 8.09443 0.401204 7.4525 1.06319C6.79052 1.70512 6.38931 2.60782 6.38931 3.61083V4.5336H5.32613C4.82462 4.5336 4.40336 4.7342 4.08239 5.05517C3.76143 5.37613 3.56083 5.81745 3.52071 6.2989L2.45752 18.1745C2.45752 18.2347 2.45752 18.2949 2.45752 18.3149C2.45752 18.7563 2.63806 19.1775 2.95902 19.4784C3.25993 19.7593 3.66113 19.9599 4.08239 20H4.10245C4.16263 20 4.22282 20 4.26294 20H15.7374C15.7775 20 15.8377 20 15.8978 20C16.3392 19.9599 16.7404 19.7593 17.0413 19.4784C17.3622 19.1775 17.5428 18.7563 17.5428 18.2949C17.5428 18.2548 17.5428 18.2146 17.5428 18.1545L16.4796 6.2989ZM7.49262 3.61083C7.49262 2.90873 7.77347 2.28686 8.23485 1.82548C8.69624 1.36409 9.3181 1.08325 10.0202 1.08325C10.7223 1.08325 11.3442 1.36409 11.8056 1.82548C12.2669 2.28686 12.5478 2.90873 12.5478 3.61083V4.5336H7.49262V3.61083ZM16.4194 18.3149C16.4194 18.4754 16.3592 18.6158 16.2389 18.7162C16.1185 18.8365 15.938 18.9168 15.7775 18.9368C15.7775 18.9368 15.7574 18.9368 15.7173 18.9368H4.26294C4.22282 18.9368 4.20276 18.9368 4.20276 18.9368H4.1827C4.00215 18.9168 3.84167 18.8365 3.72131 18.7162C3.60095 18.6158 3.54077 18.4754 3.54077 18.3149V18.2548L4.60396 6.3992C4.62402 6.17854 4.72432 5.97793 4.86474 5.83751C4.9851 5.71715 5.14558 5.63691 5.32613 5.63691H6.38931V8.08425C6.38931 8.38516 6.63004 8.62588 6.93094 8.62588C7.23184 8.62588 7.47256 8.38516 7.47256 8.08425V5.63691H12.4876V8.08425C12.4876 8.38516 12.7283 8.62588 13.0292 8.62588C13.3301 8.62588 13.5709 8.38516 13.5709 8.08425V5.63691H14.634C14.8146 5.63691 14.9751 5.71715 15.0954 5.83751C15.2359 5.97793 15.3362 6.17854 15.3562 6.3992L16.4194 18.2748V18.3149Z" fill="white"/>
</svg>
